<svg xmlns="http://www.w3.org/2000/svg" viewBox="0 0 586.06 359.71"><defs><style>.ae46c436-a8da-4112-856e-5501fc556834{isolation:isolate;}.a51b5472-2acd-4e68-be53-5f50cb95e16f{fill:none;stroke:#fff;stroke-miterlimit:10;opacity:0.2;mix-blend-mode:color-burn;}</style></defs><title>design</title><g class="ae46c436-a8da-4112-856e-5501fc556834"><g id="a98fc71a-3960-45e2-98e4-09164f9d0708" data-name="Layer 2"><polyline class="a51b5472-2acd-4e68-be53-5f50cb95e16f" points="585.56 96.21 451.06 266.71 296.06 320.71 0.06 358.71"/><polyline class="a51b5472-2acd-4e68-be53-5f50cb95e16f" points="585.56 170.21 463.56 283.21 302.56 335.21 0.56 359.21 290.56 317.21 444.56 259.21 562.56 0.21"/><polyline class="a51b5472-2acd-4e68-be53-5f50cb95e16f" points="585.56 272.21 549.56 248.21 477.56 303.21 303.56 343.21 0.56 359.21 286.56 312.21 437.56 252.21 477.56 69.21 437.56 1.21"/><polygon class="a51b5472-2acd-4e68-be53-5f50cb95e16f" points="585.56 200.21 555.56 238.21 585.56 258.21 585.56 200.21"/><polyline class="a51b5472-2acd-4e68-be53-5f50cb95e16f" points="585.56 311.21 546.56 270.21 484.56 315.21 306.56 353.21 0.56 359.21"/><polyline class="a51b5472-2acd-4e68-be53-5f50cb95e16f" points="585.56 359.21 538.56 297.21 490.56 325.21 514.56 359.21 581.56 359.21"/></g></g></svg>