<?xml version="1.0" encoding="utf-8"?>
<!-- Generator: Adobe Illustrator 24.0.3, SVG Export Plug-In . SVG Version: 6.00 Build 0)  -->
<svg version="1.1" id="Layer_1" xmlns="http://www.w3.org/2000/svg" xmlns:xlink="http://www.w3.org/1999/xlink" x="0px" y="0px"
	 viewBox="0 0 187.4 187.5" style="enable-background:new 0 0 187.4 187.5;" xml:space="preserve">
<style type="text/css">
	.st0{fill:url(#SVGID_1_);}
	.st1{fill:#F57F22;}
	.st2{fill-rule:evenodd;clip-rule:evenodd;fill:#E86E24;}
	.st3{fill-rule:evenodd;clip-rule:evenodd;fill:#FBAD18;}
	.st4{fill-rule:evenodd;clip-rule:evenodd;fill:#FCD234;}
	.st5{fill-rule:evenodd;clip-rule:evenodd;fill:#FEEEB8;}
	.st6{fill:#48BA7F;}
	.st7{fill:#8162AA;}
	.st8{fill:#F05023;}
	.st9{fill:#F37264;}
	.st10{fill:#47B8E9;}
	.st11{fill:#FCBD38;}
	.st12{fill:#F79933;}
	.st13{fill:#FED035;}
	.st14{fill:#EE6825;}
	.st15{fill:url(#SVGID_2_);}
	.st16{fill:#34C5EE;}
	.st17{opacity:0;fill:none;stroke:#FFFFFF;stroke-miterlimit:10;enable-background:new    ;}
</style>
<title>design-icons</title>
<radialGradient id="SVGID_1_" cx="-387.5106" cy="122.8524" r="1.000000e-02" gradientTransform="matrix(2291.6699 0 0 2218.75 888189.75 -272553.125)" gradientUnits="userSpaceOnUse">
	<stop  offset="0" style="stop-color:#433426;stop-opacity:0.98"/>
	<stop  offset="1" style="stop-color:#1F110A"/>
</radialGradient>
<path class="st0" d="M125.3,18.7h35.1v34.2h-35.1V18.7z"/>
<path class="st1" d="M125.3,18.7h35.1v34.2h-35.1V18.7z M123.7,54.5H162V17.1h-38.3V54.5z M148.8,30.4c0-0.1,0-0.2,0.2-0.2h2.5
	c0.1,0,0.2,0,0.2,0.2V43c0,0.1,0,0.2-0.2,0.2H149c-0.2,0-0.2-0.1-0.2-0.2L148.8,30.4L148.8,30.4z M148.6,26.8c0-0.9,0.7-1.6,1.6-1.6
	s1.6,0.7,1.6,1.6c0,0.9-0.7,1.6-1.6,1.6c0,0,0,0,0,0c-0.8,0.1-1.5-0.6-1.6-1.4C148.6,27,148.6,26.9,148.6,26.8L148.6,26.8z
	 M141.4,35.7c-0.4-1.8-1.5-5.6-1.9-7.5l0,0c-0.3,1.9-1.2,5-1.9,7.5H141.4z M137,38.3l-1.3,4.8c0,0.1-0.1,0.2-0.2,0.2h-2.3
	c-0.2,0-0.2,0-0.2-0.2l4.5-15.9c0.1-0.4,0.2-0.9,0.2-1.3c0-0.1,0-0.2,0.1-0.2h3.4c0.1,0,0.2,0,0.2,0.2l5.1,17.2c0,0.1,0,0.2-0.1,0.2
	h-2.7c-0.1,0-0.2,0-0.2-0.1l-1.3-4.8L137,38.3z"/>
<path id="bcbbb253-039d-412a-9d82-1a31aab8f0ad" class="st2" d="M12.7,92l13.7,26.8L3.3,92H12.7z"/>
<path id="b98ef7c5-5db7-4ff1-be8b-0b9e08284e0a" class="st2" d="M40,92l-13.7,26.8l23-26.8H40z"/>
<path id="bdec812a-ed62-4ff2-93a1-43e67f4e49c0" class="st3" d="M12.7,92H40l-13.7,26.8L12.7,92z"/>
<path id="f81c51d0-200b-4f31-b586-8af17c851936" class="st4" d="M26.3,77.2l-13,1.4L12.7,92L26.3,77.2z"/>
<path id="f08e36e2-d26d-4202-b75b-269b0b029bbc" class="st4" d="M26.3,77.2l13,1.4L40,92L26.3,77.2z"/>
<path id="a1d12bf8-b166-4356-82c1-c64a6a4d5b66" class="st3" d="M49.3,92l-10-13.5L40,92H49.3z"/>
<path id="ad83f536-713f-478e-8e7c-0476b20b61c8" class="st3" d="M3.3,92l10-13.5L12.7,92H3.3z"/>
<path id="a18aa52b-f97b-4906-be52-b1a4d73e97d3" class="st5" d="M26.3,77.2L12.7,92H40L26.3,77.2z"/>
<path id="f7982a40-c059-496f-bea1-ed7e77023f8d" class="st6" d="M79.8,187.5c4.5,0,8.1-3.6,8.1-8.1c0,0,0,0,0,0v-8.1h-8.1
	c-4.5,0-8.1,3.6-8.1,8.1C71.7,183.9,75.3,187.5,79.8,187.5L79.8,187.5z"/>
<path id="b8a4b776-6737-42a7-9057-d1ffa70483fc" class="st7" d="M71.7,163.2c0-4.5,3.6-8.1,8.1-8.1c0,0,0,0,0,0h8.1v16.1h-8.1
	C75.3,171.3,71.7,167.7,71.7,163.2L71.7,163.2z"/>
<path id="b76fee3e-44f3-4333-a5dc-ab4e58f06def" class="st8" d="M71.7,147.1c0-4.5,3.6-8.1,8.1-8.1l0,0h8.1v16.2h-8.1
	C75.3,155.2,71.7,151.5,71.7,147.1L71.7,147.1z"/>
<path id="bf3ed42f-7ed2-495c-93d9-81dbb678acb5" class="st9" d="M87.8,139h8.1c4.5,0,8.1,3.6,8.1,8.1c0,4.5-3.6,8.1-8.1,8.1h-8.1
	V139z"/>
<path id="b85ee468-e01a-4417-a95a-9111e7763a5d" class="st10" d="M104,163.2c0,4.5-3.6,8.1-8.1,8.1s-8.1-3.6-8.1-8.1
	c0-4.5,3.6-8.1,8.1-8.1c0,0,0,0,0,0C100.4,155.2,104,158.8,104,163.2z"/>
<path class="st11" d="M143.9,129.3l-2.7,1l-0.1,8l9.3-3.4C147.2,133.9,144.9,131.9,143.9,129.3"/>
<path class="st12" d="M145.3,120.9l-9.3,3.4l5.2,6l2.7-1C142.9,126.7,143.5,123.7,145.3,120.9"/>
<path class="st13" d="M161,109.3c-11.9,4.3-19.5,13.3-17.1,20l43-15.7C184.5,106.9,172.9,105,161,109.3"/>
<path class="st14" d="M169.8,133.6c11.9-4.3,19.6-13.3,17.1-20l-43,15.7C146.4,136.1,157.9,138,169.8,133.6"/>
<path class="st12" d="M186.9,113.6l-43,15.7c0.8,2.3,4,3.5,8.6,3.5c5.4-0.2,10.8-1.3,15.9-3.2C180.3,125.2,188.6,118.2,186.9,113.6"
	/>
<path class="st11" d="M178.4,110.1c-5.4,0.2-10.8,1.3-15.9,3.2c-11.9,4.3-20.2,11.4-18.6,16l43-15.7
	C186.1,111.3,182.9,110.2,178.4,110.1"/>
<path class="st14" d="M176,138.7c-1.3,0-3.1-1.1-5.6-3.4c-6.8-6.8-12.3-14.7-16.4-23.5c-1.7-3.9-1.9-6.4-0.7-7.2
	c0.3-0.2,0.6-0.3,0.9-0.3c1,0,2.9,0.7,6.3,4.1l0.1,0.1v0.1l-0.1,0.7v0.5l-0.3-0.4c-3.8-3.8-5.4-4.2-6-4.2c-0.1,0-0.3,0-0.4,0.1
	c-0.5,0.4-0.6,2.1,1.1,6c4,8.6,9.4,16.4,16.1,23.1c3,2.8,4.4,3.1,4.8,3.1c0.1,0,0.3,0,0.4-0.1c0.5-0.4,0.5-2.3-1.2-6.4L175,131
	l0.2-0.1l0.5-0.3l0.2-0.1l0.1,0.2c1.3,2.9,2.5,6.6,0.9,7.7C176.6,138.6,176.3,138.7,176,138.7L176,138.7z M176,138.3L176,138.3z"/>
<path class="st14" d="M170.1,133.5v0.2c-0.3,3.7-1.1,8.2-3.2,8.4h-0.1c-1.4,0-2.7-2-3.9-6c-1.3-4.6-2.1-9.4-2.5-14.2
	c-0.5-4.8-0.5-9.6,0-14.4c0.5-4.2,1.5-6.5,3-6.6h0.1c1,0,2.6,1.1,4.1,6.5l-1,0.2c-0.4-1.5-1-2.9-1.7-4.2c-0.5-0.9-1-1.4-1.4-1.4l0,0
	c-0.6,0-1.5,1.6-2,5.7c-0.8,9.4,0,19,2.4,28.1c0.4,1.4,0.9,2.7,1.6,3.9c0.5,0.9,1,1.3,1.4,1.3l0,0c0.6,0,1.7-1.6,2.2-7.2
	L170.1,133.5z"/>
<radialGradient id="SVGID_2_" cx="-387.5505" cy="122.8524" r="1.000000e-02" gradientTransform="matrix(2291.6699 0 0 2218.75 888189.75 -272553.125)" gradientUnits="userSpaceOnUse">
	<stop  offset="0" style="stop-color:#35374E;stop-opacity:0.98"/>
	<stop  offset="1" style="stop-color:#131124"/>
</radialGradient>
<path class="st15" d="M35.4,15.7h36.7v35.7H35.4V15.7z"/>
<path class="st16" d="M35.4,15.7h36.7v35.7H35.4V15.7z M33.8,53h40V14h-40V53z M60.8,30c-1.3,0-1.8,0.7-1.8,1.2s0.3,1,2.1,1.9
	c2.6,1.3,3.4,2.5,3.4,4.3c0,2.7-2,4.1-4.8,4.1c-1.2,0-2.4-0.2-3.4-0.7c-0.1,0-0.1-0.1-0.1-0.3v-2.5c0-0.2,0.1-0.2,0.2-0.1
	c1,0.6,2.2,1,3.3,1c1.3,0,1.9-0.5,1.9-1.3s-0.4-1.1-2.1-2c-2.4-1.1-3.3-2.3-3.3-4.2c0-2.1,1.7-3.9,4.6-3.9c1,0,2,0.1,3,0.5
	c0.1,0.1,0.2,0.2,0.2,0.3v2.3c0,0.1-0.1,0.2-0.2,0.2C62.8,30.3,61.8,30,60.8,30L60.8,30z M46.4,32c0.4,0,0.7,0,1.3,0
	c2,0,3.8-0.7,3.8-3.3c0-2.1-1.3-3.2-3.5-3.2c-0.7,0-1.3,0-1.6,0V32z M43.4,23.1c0-0.1,0.2-0.2,0.4-0.2c1.1,0,2.7-0.1,4.3-0.1
	c4.6,0,6.4,2.5,6.4,5.8c0,4.2-3.1,6-6.8,6c-0.6,0-0.8,0-1.3,0V41c0,0.1,0,0.2-0.2,0.2h-2.5c-0.1,0-0.2,0-0.2-0.2L43.4,23.1
	L43.4,23.1z"/>
<circle class="st17" cx="88.2" cy="88.2" r="87.8"/>
<ellipse class="st17" cx="103.8" cy="100.6" rx="68.1" ry="67.8"/>
</svg>
