<svg xmlns="http://www.w3.org/2000/svg" xmlns:xlink="http://www.w3.org/1999/xlink" viewBox="0 0 187.39 187.47"><defs><style>.b0ac9c6b-98bb-4b61-a747-ab25cc12bf2b{isolation:isolate;}.a703195a-4c4a-4a10-ace0-bd719fb8bbc0{fill:url(#b0cb9be8-80b5-4c39-9a6e-8b1913de61f2);}.e5b02658-3872-4422-9be4-092fdc3b8438{fill:#f57f22;}.a4f393b7-f802-475f-8b94-26ff4b63ad34{fill:#e86e24;}.a4f393b7-f802-475f-8b94-26ff4b63ad34,.b7781373-0cd7-4ffc-94e4-afacebd925f3,.bdc508b4-1dcd-4ea7-8272-15412341955c,.fd5fc545-664f-4ed1-823d-6994e7bd0a8c{fill-rule:evenodd;}.bdc508b4-1dcd-4ea7-8272-15412341955c{fill:#fbad18;}.b7781373-0cd7-4ffc-94e4-afacebd925f3{fill:#fcd234;}.fd5fc545-664f-4ed1-823d-6994e7bd0a8c{fill:#feeeb8;}.e94c4e5e-4972-4394-89b8-2fac93cd9202{fill:#48ba7f;}.a4f1366f-849a-4251-b46b-45a79c9691a1{fill:#8162aa;}.ef058d96-1198-4cea-962c-874133064826{fill:#f05023;}.bb80f5a4-49a6-470d-96ee-8f7f9c8c8700{fill:#f37264;}.b9592151-6031-4de4-a99d-0bb73702b950{fill:#47b8e9;}.afeb8e2f-81be-4d6c-99de-7c371cfcadf1{fill:#fcbd38;}.e42ab4a5-a5f4-4f79-8987-8f29a1fe6344{fill:#f79933;}.b0ea3f56-e108-4ebe-af6a-4fee19985eff{fill:#fed035;}.b0e20faa-cbd6-4fbd-a134-2dd96b3bfe5b{fill:#ee6825;}.a341c414-6a85-401b-b308-de138f948ba9{fill:url(#ebb09814-80e7-482d-97e9-7e8c0863fd66);}.e4ed821f-a447-49c0-a6b5-c496254bdf69{fill:#34c5ee;}.e7543c4e-15dd-4847-bf8c-96546e6b0c11{fill:none;stroke:#fff;stroke-miterlimit:10;opacity:0.2;mix-blend-mode:color-burn;}</style><radialGradient id="b0cb9be8-80b5-4c39-9a6e-8b1913de61f2" cx="-182.6" cy="272.24" r="0.01" gradientTransform="matrix(2291.67, 0, 0, -2218.75, 419525.41, 604299.14)" gradientUnits="userSpaceOnUse"><stop offset="0" stop-color="#433426" stop-opacity="0.98"/><stop offset="1" stop-color="#1f110a"/></radialGradient><radialGradient id="ebb09814-80e7-482d-97e9-7e8c0863fd66" cx="-182.64" cy="272.24" r="0.01" gradientTransform="matrix(2291.67, 0, 0, -2218.75, 419525.41, 604299.14)" gradientUnits="userSpaceOnUse"><stop offset="0" stop-color="#35374e" stop-opacity="0.98"/><stop offset="1" stop-color="#131124"/></radialGradient></defs><title>design-icons</title><g class="b0ac9c6b-98bb-4b61-a747-ab25cc12bf2b"><g id="fab27a2b-0c3d-48d2-a18b-89947f0ba654" data-name="Design Icons"><path class="a703195a-4c4a-4a10-ace0-bd719fb8bbc0" d="M1048.26,259.7h35.14v34.18h-35.14Z" transform="translate(-923 -241)"/><path class="e5b02658-3872-4422-9be4-092fdc3b8438" d="M1048.26,259.7h35.14v34.18h-35.14Zm-1.6,35.78H1085V258.1h-38.34Zm25.11-24.06c0-.13,0-.19.19-.19h2.51c.13,0,.19,0,.19.19V284c0,.12,0,.19-.19.19H1072c-.16,0-.21-.08-.21-.21V271.42Zm-.17-3.62a1.63,1.63,0,1,1,1.59,1.63A1.5,1.5,0,0,1,1071.6,267.8Zm-7.19,8.88c-.45-1.77-1.5-5.64-1.9-7.51h0c-.34,1.87-1.19,5-1.86,7.51Zm-4.44,2.59-1.26,4.79c0,.13-.08.16-.24.16h-2.35c-.16,0-.19-.05-.16-.24l4.53-15.88a5.08,5.08,0,0,0,.16-1.33c0-.11,0-.16.13-.16h3.36c.11,0,.16,0,.19.16l5.08,17.24c0,.13,0,.21-.13.21h-2.65c-.13,0-.21,0-.24-.15l-1.31-4.8Z" transform="translate(-923 -241)"/><path id="bcbbb253-039d-412a-9d82-1a31aab8f0ad" data-name="a" class="a4f393b7-f802-475f-8b94-26ff4b63ad34" d="M935.66,333l13.67,26.77-23-26.77Z" transform="translate(-923 -241)"/><path id="b98ef7c5-5db7-4ff1-be8b-0b9e08284e0a" data-name="b" class="a4f393b7-f802-475f-8b94-26ff4b63ad34" d="M963,333l-13.67,26.77,23-26.77Z" transform="translate(-923 -241)"/><path id="bdec812a-ed62-4ff2-93a1-43e67f4e49c0" data-name="c" class="bdc508b4-1dcd-4ea7-8272-15412341955c" d="M935.66,333H963l-13.68,26.77Z" transform="translate(-923 -241)"/><path id="f81c51d0-200b-4f31-b586-8af17c851936" data-name="d" class="b7781373-0cd7-4ffc-94e4-afacebd925f3" d="M949.33,318.16l-13,1.37L935.66,333Z" transform="translate(-923 -241)"/><path id="f08e36e2-d26d-4202-b75b-269b0b029bbc" data-name="e" class="b7781373-0cd7-4ffc-94e4-afacebd925f3" d="M949.33,318.16l13,1.37L963,333Z" transform="translate(-923 -241)"/><path id="a1d12bf8-b166-4356-82c1-c64a6a4d5b66" data-name="f" class="bdc508b4-1dcd-4ea7-8272-15412341955c" d="M972.33,333l-10-13.47L963,333Z" transform="translate(-923 -241)"/><path id="ad83f536-713f-478e-8e7c-0476b20b61c8" data-name="g" class="bdc508b4-1dcd-4ea7-8272-15412341955c" d="M926.35,333l10-13.47L935.66,333Z" transform="translate(-923 -241)"/><path id="a18aa52b-f97b-4906-be52-b1a4d73e97d3" data-name="h" class="fd5fc545-664f-4ed1-823d-6994e7bd0a8c" d="M949.33,318.16,935.66,333H963Z" transform="translate(-923 -241)"/><path id="f7982a40-c059-496f-bea1-ed7e77023f8d" data-name="path0 fill" class="e94c4e5e-4972-4394-89b8-2fac93cd9202" d="M1002.77,428.47a8.07,8.07,0,0,0,8.07-8.08v-8.08h-8.07a8.08,8.08,0,1,0,0,16.16Z" transform="translate(-923 -241)"/><path id="b8a4b776-6737-42a7-9057-d1ffa70483fc" data-name="path1 fill" class="a4f1366f-849a-4251-b46b-45a79c9691a1" d="M994.69,404.23a8.07,8.07,0,0,1,8.08-8.07h8.07v16.15h-8.07A8.08,8.08,0,0,1,994.69,404.23Z" transform="translate(-923 -241)"/><path id="b76fee3e-44f3-4333-a5dc-ab4e58f06def" data-name="path1 fill" class="ef058d96-1198-4cea-962c-874133064826" d="M994.69,388.08a8.08,8.08,0,0,1,8.08-8.08h8.07v16.16h-8.07A8.08,8.08,0,0,1,994.69,388.08Z" transform="translate(-923 -241)"/><path id="bf3ed42f-7ed2-495c-93d9-81dbb678acb5" data-name="path2 fill" class="bb80f5a4-49a6-470d-96ee-8f7f9c8c8700" d="M1010.84,380h8.08a8.08,8.08,0,1,1,0,16.16h-8.08Z" transform="translate(-923 -241)"/><path id="b85ee468-e01a-4417-a95a-9111e7763a5d" data-name="path3 fill" class="b9592151-6031-4de4-a99d-0bb73702b950" d="M1027,404.23a8.08,8.08,0,1,1-8.08-8.07A8.08,8.08,0,0,1,1027,404.23Z" transform="translate(-923 -241)"/><path class="afeb8e2f-81be-4d6c-99de-7c371cfcadf1" d="M1066.92,370.33l-2.69,1-.14,8,9.3-3.4c-3.19-1.07-5.52-3-6.47-5.58" transform="translate(-923 -241)"/><path class="e42ab4a5-a5f4-4f79-8987-8f29a1fe6344" d="M1068.33,361.87l-9.34,3.41,5.24,6,2.69-1c-1-2.61-.37-5.57,1.41-8.46" transform="translate(-923 -241)"/><path class="b0ea3f56-e108-4ebe-af6a-4fee19985eff" d="M1084,350.33c-11.88,4.34-19.54,13.29-17.1,20l43-15.72c-2.43-6.7-14-8.62-25.92-4.28" transform="translate(-923 -241)"/><path class="b0e20faa-cbd6-4fbd-a134-2dd96b3bfe5b" d="M1092.83,374.62c11.88-4.34,19.56-13.26,17.11-20l-43,15.71c2.44,6.75,14,8.63,25.91,4.29" transform="translate(-923 -241)"/><path class="e42ab4a5-a5f4-4f79-8987-8f29a1fe6344" d="M1109.94,354.61l-43,15.72c.84,2.32,4,3.47,8.56,3.47a48.45,48.45,0,0,0,15.88-3.23c11.89-4.34,20.24-11.37,18.58-16" transform="translate(-923 -241)"/><path class="afeb8e2f-81be-4d6c-99de-7c371cfcadf1" d="M1101.38,351.15a48.3,48.3,0,0,0-15.89,3.23c-11.88,4.34-20.24,11.36-18.57,15.95l43-15.72c-.84-2.32-4-3.46-8.56-3.46" transform="translate(-923 -241)"/><path class="b0e20faa-cbd6-4fbd-a134-2dd96b3bfe5b" d="M1099,379.74c-1.27,0-3.13-1.15-5.55-3.4a81.63,81.63,0,0,1-16.37-23.47c-1.66-3.93-1.89-6.35-.7-7.19a1.54,1.54,0,0,1,.93-.27c1,0,2.86.72,6.35,4.15l.07.08v.1l-.06.74,0,.49-.34-.35c-3.76-3.78-5.41-4.19-6-4.19a.65.65,0,0,0-.37.09c-.51.36-.55,2.14,1.06,6a79.93,79.93,0,0,0,16.13,23.12c3,2.82,4.39,3.13,4.84,3.13a.62.62,0,0,0,.37-.1c.54-.38.54-2.28-1.25-6.39L1098,372l.18-.1.51-.28.22-.13.1.23c1.27,2.91,2.46,6.61.9,7.7a1.65,1.65,0,0,1-.94.28Zm0-.45v0Z" transform="translate(-923 -241)"/><path class="b0e20faa-cbd6-4fbd-a134-2dd96b3bfe5b" d="M1093.12,374.49l0,.23c-.3,3.71-1.09,8.18-3.15,8.36h-.13c-1.4,0-2.72-2-3.94-6a72.53,72.53,0,0,1-2.5-14.16,71.4,71.4,0,0,1,0-14.38c.52-4.23,1.52-6.45,3-6.57h.13c1,0,2.55,1.15,4.12,6.51l-1,.2a20.55,20.55,0,0,0-1.66-4.25c-.52-.93-1-1.44-1.43-1.44h0c-.63.05-1.54,1.57-2,5.68a80.28,80.28,0,0,0,2.45,28.11,19.25,19.25,0,0,0,1.6,3.93c.5.85,1,1.31,1.36,1.31h0c.6-.05,1.73-1.64,2.21-7.21Z" transform="translate(-923 -241)"/><path class="a341c414-6a85-401b-b308-de138f948ba9" d="M958.43,256.67h36.66v35.66H958.43Z" transform="translate(-923 -241)"/><path class="e4ed821f-a447-49c0-a6b5-c496254bdf69" d="M958.43,256.67h36.66v35.66H958.43ZM956.77,294h40V255h-40Zm27-23c-1.32,0-1.77.66-1.77,1.21s.3,1,2.07,1.94c2.62,1.26,3.43,2.48,3.43,4.26,0,2.67-2,4.1-4.78,4.1a7.37,7.37,0,0,1-3.42-.71c-.11-.05-.13-.14-.13-.27v-2.45c0-.17.08-.22.2-.13a6.21,6.21,0,0,0,3.35,1c1.32,0,1.87-.55,1.87-1.3s-.39-1.13-2.07-2c-2.37-1.13-3.35-2.28-3.35-4.2,0-2.15,1.68-3.93,4.6-3.93a7.69,7.69,0,0,1,3,.46.37.37,0,0,1,.17.34v2.28c0,.13-.08.22-.25.17a5.6,5.6,0,0,0-2.9-.75Zm-14.33,2c.38,0,.68,0,1.35,0,2,0,3.78-.68,3.78-3.33,0-2.12-1.32-3.18-3.53-3.18-.67,0-1.3,0-1.6.05Zm-3-8.85c0-.11.24-.2.37-.2,1.07-.05,2.65-.08,4.3-.08,4.61,0,6.41,2.53,6.41,5.76,0,4.24-3.06,6.05-6.83,6.05-.63,0-.85,0-1.3,0V282c0,.13,0,.2-.2.2h-2.55c-.13,0-.2-.05-.2-.2v-17.9Z" transform="translate(-923 -241)"/><circle class="e7543c4e-15dd-4847-bf8c-96546e6b0c11" cx="88.25" cy="88.25" r="87.75"/><ellipse class="e7543c4e-15dd-4847-bf8c-96546e6b0c11" cx="103.76" cy="100.57" rx="68.09" ry="67.81"/></g></g></svg>