<svg xmlns="http://www.w3.org/2000/svg" viewBox="0 0 581.48 353.55"><defs><style>.a9e36b99-a0df-43fe-b6bb-750ab9f1c161{isolation:isolate;}.bb1dbeed-34a7-4c89-aece-9cf2d53bd698,.bf76e1fd-8cdd-428f-a152-b9cc7aec2740{fill:none;stroke:#fff;stroke-miterlimit:10;opacity:0.2;mix-blend-mode:color-burn;}.bb1dbeed-34a7-4c89-aece-9cf2d53bd698{stroke-width:0;}</style></defs><title>digital</title><g class="a9e36b99-a0df-43fe-b6bb-750ab9f1c161"><g id="bf856893-f532-4eef-8582-fdcaa7b0c97c" data-name="Layer 1"><polygon class="bb1dbeed-34a7-4c89-aece-9cf2d53bd698" points="523 247.55 523 229.63 538.52 220.66 554.05 229.63 554.05 247.55 538.52 256.51 523 247.55"/><polygon class="bb1dbeed-34a7-4c89-aece-9cf2d53bd698" points="492.25 211.7 492.25 185.17 515.22 171.91 538.2 185.17 538.2 211.7 515.22 224.97 492.25 211.7"/><polygon class="bf76e1fd-8cdd-428f-a152-b9cc7aec2740" points="385.54 202.18 385.54 174.58 409.44 160.78 433.34 174.58 433.34 202.18 409.44 215.98 385.54 202.18"/><polygon class="bf76e1fd-8cdd-428f-a152-b9cc7aec2740" points="24.13 106.64 24.13 74.33 52.11 58.18 80.09 74.33 80.09 106.64 52.11 122.8 24.13 106.64"/><polygon class="bf76e1fd-8cdd-428f-a152-b9cc7aec2740" points="413.86 144.23 413.86 126.68 429.06 117.9 444.26 126.68 444.26 144.23 429.06 153 413.86 144.23"/><polygon class="bf76e1fd-8cdd-428f-a152-b9cc7aec2740" points="258.79 158.75 258.79 121.9 290.71 103.47 322.63 121.9 322.63 158.75 290.71 177.18 258.79 158.75"/><polygon class="bb1dbeed-34a7-4c89-aece-9cf2d53bd698" points="392.05 26.84 392.05 10.74 405.99 2.68 419.94 10.74 419.94 26.84 405.99 34.89 392.05 26.84"/><polygon class="bb1dbeed-34a7-4c89-aece-9cf2d53bd698" points="5.05 57.84 5.05 41.74 18.99 33.68 32.94 41.74 32.94 57.84 18.99 65.89 5.05 57.84"/><polygon class="bb1dbeed-34a7-4c89-aece-9cf2d53bd698" points="0 23 0 13.22 8.47 8.33 16.94 13.22 16.94 23 8.47 27.89 0 23"/><polygon class="bb1dbeed-34a7-4c89-aece-9cf2d53bd698" points="377.75 157.99 377.75 144.78 389.19 138.17 400.64 144.78 400.64 157.99 389.19 164.6 377.75 157.99"/><polygon class="bb1dbeed-34a7-4c89-aece-9cf2d53bd698" points="121.14 255.76 121.14 206.52 163.78 181.9 206.42 206.52 206.42 255.76 163.78 280.38 121.14 255.76"/><polygon class="bb1dbeed-34a7-4c89-aece-9cf2d53bd698" points="200.6 45.24 200.6 21.58 221.09 9.76 241.58 21.58 241.58 45.24 221.09 57.07 200.6 45.24"/><polygon class="bb1dbeed-34a7-4c89-aece-9cf2d53bd698" points="314.91 257.17 314.91 242.55 327.57 235.24 340.23 242.55 340.23 257.17 327.57 264.48 314.91 257.17"/><polygon class="bf76e1fd-8cdd-428f-a152-b9cc7aec2740" points="75 239.73 75 207.14 103.23 190.84 131.45 207.14 131.45 239.73 103.23 256.03 75 239.73"/><polygon class="bb1dbeed-34a7-4c89-aece-9cf2d53bd698" points="273.23 214.54 273.23 188.97 295.37 176.19 317.51 188.97 317.51 214.54 295.37 227.33 273.23 214.54"/><polygon class="bf76e1fd-8cdd-428f-a152-b9cc7aec2740" points="41.12 37.87 41.12 13.01 62.65 0.58 84.18 13.01 84.18 37.87 62.65 50.3 41.12 37.87"/><polygon class="bb1dbeed-34a7-4c89-aece-9cf2d53bd698" points="236.07 51.63 236.07 33.81 251.51 24.89 266.94 33.81 266.94 51.63 251.51 60.55 236.07 51.63"/><polygon class="bb1dbeed-34a7-4c89-aece-9cf2d53bd698" points="168.6 338.24 168.6 314.58 189.09 302.76 209.58 314.58 209.58 338.24 189.09 350.07 168.6 338.24"/><polygon class="bb1dbeed-34a7-4c89-aece-9cf2d53bd698" points="204.07 344.63 204.07 326.81 219.51 317.89 234.94 326.81 234.94 344.63 219.51 353.55 204.07 344.63"/><polygon class="bb1dbeed-34a7-4c89-aece-9cf2d53bd698" points="361.8 58.47 361.8 48.03 370.83 42.82 379.87 48.03 379.87 58.47 370.83 63.68 361.8 58.47"/><polygon class="bb1dbeed-34a7-4c89-aece-9cf2d53bd698" points="308.16 38.83 308.16 23.12 321.76 15.27 335.36 23.12 335.36 38.83 321.76 46.68 308.16 38.83"/><polygon class="bf76e1fd-8cdd-428f-a152-b9cc7aec2740" points="545.89 255.87 545.89 242.67 557.32 236.07 568.74 242.67 568.74 255.87 557.32 262.46 545.89 255.87"/><polygon class="bb1dbeed-34a7-4c89-aece-9cf2d53bd698" points="548.27 208.29 548.27 189.11 564.87 179.53 581.48 189.11 581.48 208.29 564.87 217.88 548.27 208.29"/><polygon class="bf76e1fd-8cdd-428f-a152-b9cc7aec2740" points="494.28 175.22 494.28 151.22 515.06 139.22 535.85 151.22 535.85 175.22 515.06 187.22 494.28 175.22"/><polygon class="bb1dbeed-34a7-4c89-aece-9cf2d53bd698" points="428.12 201.68 428.12 175.69 450.63 162.7 473.13 175.69 473.13 201.68 450.63 214.67 428.12 201.68"/><polygon class="bb1dbeed-34a7-4c89-aece-9cf2d53bd698" points="438.79 129.13 438.79 103.14 461.3 90.14 483.81 103.14 483.81 129.13 461.3 142.13 438.79 129.13"/><polygon class="bb1dbeed-34a7-4c89-aece-9cf2d53bd698" points="150.66 95.11 150.66 69.11 173.17 56.11 195.68 69.11 195.68 95.11 173.17 108.1 150.66 95.11"/><polygon class="bb1dbeed-34a7-4c89-aece-9cf2d53bd698" points="223.87 160.35 223.87 134.35 246.38 121.35 268.89 134.35 268.89 160.35 246.38 173.34 223.87 160.35"/><polygon class="bb1dbeed-34a7-4c89-aece-9cf2d53bd698" points="67.62 88.99 67.62 62.56 90.51 49.34 113.4 62.56 113.4 88.99 90.51 102.21 67.62 88.99"/><polygon class="bf76e1fd-8cdd-428f-a152-b9cc7aec2740" points="286.41 153.67 286.41 95.07 337.15 65.77 387.9 95.07 387.9 153.67 337.15 182.97 286.41 153.67"/><polygon class="bf76e1fd-8cdd-428f-a152-b9cc7aec2740" points="379.81 192.42 379.81 218.41 357.29 231.41 334.78 218.41 334.78 192.42 357.29 179.42 379.81 192.42"/><polygon class="bf76e1fd-8cdd-428f-a152-b9cc7aec2740" points="70.9 135.43 70.9 98.22 103.12 79.62 135.35 98.22 135.35 135.43 103.12 154.04 70.9 135.43"/><polygon class="bf76e1fd-8cdd-428f-a152-b9cc7aec2740" points="211.67 103.71 211.67 77.71 234.18 64.72 256.69 77.71 256.69 103.71 234.18 116.71 211.67 103.71"/><polygon class="bf76e1fd-8cdd-428f-a152-b9cc7aec2740" points="323 53.46 323 27.46 345.52 14.47 368.03 27.46 368.03 53.46 345.52 66.46 323 53.46"/><polygon class="bf76e1fd-8cdd-428f-a152-b9cc7aec2740" points="15.62 190.11 15.62 164.12 38.13 151.12 60.65 164.12 60.65 190.11 38.13 203.11 15.62 190.11"/><polygon class="bb1dbeed-34a7-4c89-aece-9cf2d53bd698" points="367.55 167.66 367.55 179.96 356.89 186.12 346.23 179.96 346.23 167.66 356.89 161.51 367.55 167.66"/><polygon class="bf76e1fd-8cdd-428f-a152-b9cc7aec2740" points="201.62 236.01 201.62 210.02 224.14 197.02 246.65 210.02 246.65 236.01 224.14 249.01 201.62 236.01"/><polygon class="bf76e1fd-8cdd-428f-a152-b9cc7aec2740" points="119.43 187.02 119.43 124.09 173.92 92.62 228.42 124.09 228.42 187.02 173.92 218.48 119.43 187.02"/><polygon class="bf76e1fd-8cdd-428f-a152-b9cc7aec2740" points="377.94 99.71 377.94 80.31 394.75 70.6 411.55 80.31 411.55 99.71 394.75 109.41 377.94 99.71"/><polygon class="bb1dbeed-34a7-4c89-aece-9cf2d53bd698" points="266.12 111.2 266.12 85.2 288.63 72.21 311.14 85.2 311.14 111.2 288.63 124.2 266.12 111.2"/><polygon class="bf76e1fd-8cdd-428f-a152-b9cc7aec2740" points="131.33 291.04 131.33 271.84 147.95 262.24 164.58 271.84 164.58 291.04 147.95 300.63 131.33 291.04"/><polygon class="bf76e1fd-8cdd-428f-a152-b9cc7aec2740" points="278.42 248.57 278.42 222.57 300.94 209.57 323.45 222.57 323.45 248.57 300.94 261.56 278.42 248.57"/><polygon class="bb1dbeed-34a7-4c89-aece-9cf2d53bd698" points="100.94 280.41 100.94 273.15 107.24 269.51 113.53 273.15 113.53 280.41 107.24 284.05 100.94 280.41"/><polygon class="bf76e1fd-8cdd-428f-a152-b9cc7aec2740" points="71.27 180.2 71.27 163.72 85.55 155.47 99.82 163.72 99.82 180.2 85.55 188.45 71.27 180.2"/><polygon class="bf76e1fd-8cdd-428f-a152-b9cc7aec2740" points="202.22 290.07 202.22 264.07 224.74 251.07 247.25 264.07 247.25 290.07 224.74 303.07 202.22 290.07"/></g></g></svg>