<svg id="e728f72b-526e-4d00-936e-ae7793ffe5dc" data-name="Layer 1" xmlns="http://www.w3.org/2000/svg" viewBox="0 0 123.78 112.87"><defs><style>.ad5b9522-b679-4753-8bd5-42e14c108e88{fill:none;}.b659f17a-a30b-44cf-81e5-f86556979545{fill:#fff;}</style></defs><title>segura-icon-light</title><g id="ea1eb1e6-d622-4c99-90bc-dcb82f46c664" data-name="Layer 29"><rect class="ad5b9522-b679-4753-8bd5-42e14c108e88" width="123.78" height="112.87"/></g><g id="bbe00031-4a11-4c64-9c59-835c32d4478f" data-name="Layer 26"><path class="b659f17a-a30b-44cf-81e5-f86556979545" d="M91.61,30.91,88.84,43.69c7.08,4.57,11.86,13.17,11.86,23,0,14.65-10.54,26.53-23.53,26.53h-.78a14.59,14.59,0,0,1-1.87-.16H50.29l.21-1,1.72-8.15H76.39c.37,0,.75,0,1.14,0C86,84,92.89,76.32,92.89,66.9S86,49.84,77.53,49.84H46.89A4.12,4.12,0,0,1,43,45.53v-.34a4.12,4.12,0,0,1,3.89-4.32H80.94L81.36,39,88.64,6.06H46.94c-19.27,0-34.89,17.6-34.89,39.32C12.05,61.3,20.44,75,32.5,81.19l2.77-12.78c-7.09-4.57-11.86-13.17-11.86-23,0-14.65,10.53-26.52,23.53-26.52h.77a14.58,14.58,0,0,1,1.87.15H73.81l-.21,1-1.72,8.15H46.58c-8.49,0-15.36,7.64-15.36,17.06s6.87,17.06,15.36,17.06H77.22a4.12,4.12,0,0,1,3.88,4.32V67a4.12,4.12,0,0,1-3.88,4.32H43.16l-.41,1.88L35.46,106.1H77.17c19.26,0,34.88-17.61,34.88-39.33C112.05,50.77,103.67,37.1,91.61,30.91Z"/></g></svg>