<svg id="f8bb0157-ee7c-4d1f-809b-deaff6ae63ec" data-name="e728f72b-526e-4d00-936e-ae7793ffe5dc" xmlns="http://www.w3.org/2000/svg" viewBox="0 0 236.65 112.87"><defs><style>.faf21acc-c327-4908-bb9b-5bc75c851e24{fill:#fff;}</style></defs><title>segura-icon-light</title><g id="a831d745-20b8-43c2-bd29-0e2411a04c18" data-name="bbe00031-4a11-4c64-9c59-835c32d4478f"><path class="faf21acc-c327-4908-bb9b-5bc75c851e24" d="M98.48,28.78,95.05,43.07a29.75,29.75,0,0,1,14.68,25.72c0,16.39-13,29.67-29.12,29.67h-1a19.78,19.78,0,0,1-2.31-.17h-30l.26-1.12,2.13-9.12H81.05a19.05,19.05,0,0,0,0-38.1H43.12a4.82,4.82,0,0,1-4.81-4.82v-.38a4.8,4.8,0,0,1,4.81-4.83H85.27l.52-2.1L94.8,1H43.19C19.33,1,0,20.67,0,45A44,44,0,0,0,25.31,85l3.43-14.29A29.73,29.73,0,0,1,14.06,45c0-16.38,13-29.66,29.13-29.66h1a19.78,19.78,0,0,1,2.31.17h30l-.26,1.12-2.13,9.11H42.74a19.08,19.08,0,0,0,0,38.16H80.67a4.82,4.82,0,0,1,4.8,4.84v.41A4.8,4.8,0,0,1,80.67,74H38.51L38,76.07l-9,36.8H80.61c23.84,0,43.17-19.7,43.17-44A44,44,0,0,0,98.48,28.78Z"/></g><g id="e338fcfa-7442-4726-9fbf-4cd1600a67fe" data-name="bbe00031-4a11-4c64-9c59-835c32d4478f"><path class="faf21acc-c327-4908-bb9b-5bc75c851e24" d="M213.58,28l-3.13,14.42c8,5.15,13.39,14.86,13.39,25.95,0,16.52-11.9,29.93-26.56,29.93h-.88a18.57,18.57,0,0,1-2.11-.18H166.94l.24-1.13,1.94-9.2h28.57c9.56.11,17.33-8.56,17.33-19.19s-7.77-19.25-17.33-19.25H163.1a4.64,4.64,0,0,1-4.39-4.86v-.38a4.66,4.66,0,0,1,4.39-4.88h38.44l.47-2.11L210.23,0H163.16c-21.75,0-39.38,19.86-39.38,44.36,0,18,9.47,33.42,23.08,40.41L150,70.35c-8-5.16-13.39-14.86-13.39-25.95,0-16.53,11.89-29.92,26.56-29.92H164a16.51,16.51,0,0,1,2.11.16h27.35l-.24,1.13L191.31,25H162.75c-9.58,0-17.33,8.62-17.33,19.25s7.75,19.24,17.33,19.24h34.59a4.67,4.67,0,0,1,4.38,4.88v.42a4.66,4.66,0,0,1-4.38,4.87H158.89l-.46,2.12-8.23,37.12h47.08c21.74,0,39.37-19.87,39.37-44.37C236.65,50.44,227.19,35,213.58,28Z"/></g></svg>