<?xml version="1.0" encoding="utf-8"?>
<!-- Generator: Adobe Illustrator 24.0.3, SVG Export Plug-In . SVG Version: 6.00 Build 0)  -->
<svg version="1.1" id="Layer_1" xmlns="http://www.w3.org/2000/svg" xmlns:xlink="http://www.w3.org/1999/xlink" x="0px" y="0px"
	 viewBox="0 0 501 501" style="enable-background:new 0 0 501 501;" xml:space="preserve">
<style type="text/css">
	.st0{fill:#010101;}
</style>
<title>segura-square-icon</title>
<path class="st0" d="M222.3,388.2l-34.4-79.6c-3.7-9.1-20.3-51.8-29.9-78c0,28.2,0,80.9-0.8,101.2l-2.1,56.4h-63l16.6-280.7h58.9
	l64.7,161.7c3.7,10,10.8,29.5,17,50.2c6.2-20.3,13.3-39.8,17.4-50.2l64.7-161.7H389l16.6,280.8h-64.3l-2.5-56.4
	c-0.8-20.7-0.8-73.4-0.4-101.2c-8.3,23.6-23.2,61-29,74.2l-35.3,83.3H222.3z"/>
<path class="st0" d="M501,501H0V0h501V501z M41.8,459.2h417.5V41.8H41.8V459.2z"/>
</svg>
